PathFileType	4	(X/Y/Z)	C:/Users/opensim2020/Desktop/walking_exp_matlab/subject06_walking21_straight_03.trc																																																																																																																																		
DataRate	CameraRate	NumFrames	NumMarkers	Units	OrigDataRate	OrigDataStartFrame	OrigNumFrames																																																																																																																														
100	100	5	44	mm	100	1793	110																																																																																																																														
Frame#	Time	LFHD			RFHD			LBHD			RBHD			C7			T10			CLAV			STRN			RBAK			LSHO			LUPA			LELB			LFRM			LWRA			LWRB			LFIN			RSHO			RUPA			RELB			RFRM			RWRA			RWRB			RFIN			LASI			RASI			LPSI			RPSI			LTHI			LKNE			LTIB			LANK			LHEE			LTOE			RTHI			RKNE			RTIB			RANK			RHEE			RTOE			*39			*40			*41			*42			*43		
		X1	Y1	Z1	X2	Y2	Z2	X3	Y3	Z3	X4	Y4	Z4	X5	Y5	Z5	X6	Y6	Z6	X7	Y7	Z7	X8	Y8	Z8	X9	Y9	Z9	X10	Y10	Z10	X11	Y11	Z11	X12	Y12	Z12	X13	Y13	Z13	X14	Y14	Z14	X15	Y15	Z15	X16	Y16	Z16	X17	Y17	Z17	X18	Y18	Z18	X19	Y19	Z19	X20	Y20	Z20	X21	Y21	Z21	X22	Y22	Z22	X23	Y23	Z23	X24	Y24	Z24	X25	Y25	Z25	X26	Y26	Z26	X27	Y27	Z27	X28	Y28	Z28	X29	Y29	Z29	X30	Y30	Z30	X31	Y31	Z31	X32	Y32	Z32	X33	Y33	Z33	X34	Y34	Z34	X35	Y35	Z35	X36	Y36	Z36	X37	Y37	Z37	X38	Y38	Z38	X39	Y39	Z39	X40	Y40	Z40	X41	Y41	Z41	X42	Y42	Z42	X43	Y43	Z43	X44	Y44	Z44
																																																																																																																																					
28	0.27	-453.66254	1646.7738	-1091.14209	-455.13589	1631.73828	-960.05896	-587.04742	1592.81287	-1094.18677	-586.69263	1583.39917	-964.91626	-589.29449	1435.46497	-1034.81335	-642.93115	1111.04053	-1022.22345	-483.35864	1352.27356	-1038.80505	-453.65283	1174.86353	-1043.07458	-666.90436	1271.37109	-947.49738	-548.58838	1385.69495	-1197.36096	-593.22858	1187.52856	-1264.41223	-622.86151	1078.69373	-1274.12939	-633.74921	930.5708	-1304.04346	-588.94812	804.25299	-1277.22424	-656.77277	813.51965	-1303.24878	-633.25775	726.07794	-1313.5238	-521.26678	1392.15686	-876.6427	-562.10712	1199.47815	-781.39172	-550.6264	1081.31995	-766.34283	-490.51678	980.85699	-753.7478	-374.12131	890.73047	-796.39307	-421.0141	863.53088	-756.41968	-353.04794	814.59283	-760.30151	-478.21799	943.73352	-1134.63147	-480.67853	943.34436	-917.01764	-635.27643	974.06976	-1110.81873	-629.1037	978.7132	-942.3783	-468.76035	643.85632	-1206.79346	-398.44492	497.50208	-1182.46973	-400.75854	242.46318	-1173.76294	-377.90909	70.48788	-1134.21045	-411.15698	51.59324	-1083.34998	-234.1196	61.09464	-1143.41663	-579.66858	612.66595	-882.46265	-603.89905	489.19562	-911.06421	-723.71118	246.02954	-925.14063	-793.80334	76.1683	-979.93127	-843.08716	60.60715	-1021.80176	-648.88849	30.48747	-990.80029	-554.46704	1683.29297	-1031.90393	NaN	NaN	NaN	NaN	NaN	NaN	NaN	NaN	NaN	NaN	NaN	NaN
29	0.28	-439.88382	1644.41711	-1091.83386	-441.21085	1629.44482	-960.6958	-573.30963	1590.49487	-1094.74805	-572.85034	1581.20569	-965.44769	-575.57477	1433.22424	-1035.46448	-629.37469	1108.63818	-1023.02869	-469.68484	1349.91492	-1039.31726	-440.03214	1172.55469	-1043.37048	-653.39636	1268.96167	-948.01398	-534.4577	1383.14893	-1198.08362	-581.88904	1185.64966	-1264.979	-613.45325	1077.34607	-1274.53088	-628.0705	929.72363	-1304.75574	-586.27014	802.25146	-1278.64954	-653.91656	813.23083	-1303.90369	-633.01642	725.29071	-1314.72827	-507.74567	1389.92004	-877.15149	-548.08093	1197.3064	-781.53516	-536.00806	1079.49854	-766.35657	-473.62241	980.82855	-754.36353	-355.16284	894.46997	-798.28723	-400.72198	865.62775	-758.04211	-331.63214	818.85303	-762.51141	-463.83847	941.69739	-1135.0946	-467.30753	941.02374	-917.36566	-621.14343	971.69336	-1112.00439	-615.87012	976.44611	-943.38702	-456.28494	640.34412	-1207.35559	-384.77026	494.8139	-1181.30066	-373.66135	240.31238	-1173.32092	-339.47656	69.74863	-1134.19421	-371.96423	49.36944	-1083.52258	-194.96132	66.68415	-1141.65112	-569.26227	611.39587	-883.01129	-595.47876	488.17688	-911.37506	-720.25665	247.04752	-925.90582	-792.95911	78.22995	-980.58081	-842.22644	63.52711	-1022.74072	-648.86987	30.47629	-990.97717	-540.61426	1681.01746	-1032.53259	NaN	NaN	NaN	NaN	NaN	NaN	NaN	NaN	NaN	NaN	NaN	NaN
30	0.29	-426.28046	1642.01953	-1092.57385	-427.28299	1627.172	-961.38177	-559.48755	1588.15051	-1095.35193	-558.91998	1578.99829	-966.10614	-561.91528	1431.02905	-1036.2074	-615.74756	1106.25439	-1023.90588	-455.94669	1347.62244	-1039.81189	-426.43732	1170.22461	-1043.7998	-639.81335	1266.62061	-948.65472	-520.51996	1380.58374	-1198.73145	-570.46472	1183.88623	-1265.80725	-604.04144	1076.26343	-1274.93433	-622.08337	929.1933	-1305.474	-582.56287	800.59369	-1279.93469	-650.61334	813.34235	-1304.7511	-632.1059	724.86121	-1316.0636	-494.18933	1387.70374	-877.7583	-534.03577	1195.2052	-781.81787	-521.44421	1077.75146	-766.38055	-456.94482	980.80115	-755.01678	-336.77173	897.79993	-800.15881	-381.02325	867.6991	-759.42059	-310.91504	822.90222	-764.84521	-449.21381	939.77429	-1135.49182	-453.68677	938.83545	-917.71802	-606.81793	969.24072	-1113.37476	-602.08881	973.95563	-944.77698	-443.95224	636.51477	-1208.55994	-370.90305	492.00629	-1179.99121	-346.68539	238.39754	-1172.77417	-303.45486	70.01034	-1134.0282	-335.0976	48.26036	-1083.32629	-158.23865	72.81446	-1140.38245	-558.37756	610.21991	-883.45392	-586.3877	487.14554	-911.5744	-716.20459	248.29831	-926.33075	-791.87024	80.66285	-980.89764	-840.88196	66.52657	-1023.7926	-648.63354	30.30387	-991.20959	-526.77728	1678.73425	-1033.23608	NaN	NaN	NaN	NaN	NaN	NaN	NaN	NaN	NaN	NaN	NaN	NaN
31	0.3	-412.31265	1639.93628	-1093.31506	-413.3811	1625.05298	-962.12451	-545.52576	1585.90735	-1096.06421	-544.92181	1576.72668	-966.81464	-548.12268	1428.90588	-1037.09497	-601.94879	1103.89209	-1024.92786	-442.09268	1345.3125	-1040.53125	-412.65039	1168.00891	-1044.2915	-626.12769	1264.33472	-949.3869	-506.53735	1378.25806	-1199.59729	-558.83746	1182.18945	-1266.27563	-594.2774	1075.19116	-1275.47375	-615.40289	928.58929	-1306.2677	-579.33771	798.87976	-1281.2937	-646.40009	813.30078	-1305.37622	-630.20178	724.63159	-1317.12561	-480.52954	1385.57214	-878.4035	-520.03625	1193.21216	-782.07483	-506.87872	1076.09155	-766.45679	-440.5455	980.71509	-755.69434	-318.91446	900.82214	-802.04047	-362.12711	869.48779	-761.19983	-290.95834	826.52972	-766.99689	-434.22348	938.01514	-1135.85217	-439.77234	936.81842	-918.16168	-592.16028	966.74805	-1114.83105	-588.39172	971.65802	-946.14386	-430.6857	632.99506	-1209.94128	-357.1839	489.10703	-1179.60474	-322.4631	236.97136	-1172.05701	-270.37912	70.98999	-1133.57251	-301.16251	48.12148	-1082.77246	-124.37167	79.24279	-1139.34167	-546.98834	609.07001	-884.40076	-576.35938	486.10873	-911.77295	-711.42047	249.74356	-926.52466	-790.53711	83.58756	-980.7923	-839.86316	70.84982	-1023.34875	-648.56177	30.19284	-991.41272	-512.8678	1676.44238	-1033.90356	NaN	NaN	NaN	NaN	NaN	NaN	NaN	NaN	NaN	NaN	NaN	NaN
32	0.31	-398.25925	1637.87048	-1094.02869	-399.35919	1623.0365	-962.90308	-531.55756	1583.75171	-1096.91309	-530.92419	1574.49524	-967.57635	-534.11823	1426.74756	-1038.05969	-587.96082	1101.66809	-1025.91663	-428.14221	1343.30652	-1041.29468	-398.84573	1165.95959	-1044.77734	-612.43359	1262.22803	-950.19757	-492.4556	1375.96655	-1200.59192	-547.10016	1180.69775	-1267.06201	-584.10657	1074.2948	-1276.20325	-608.12781	928.20923	-1306.99011	-574.97247	797.61346	-1282.81873	-641.61932	813.72101	-1306.20691	-627.43164	724.55975	-1318.43652	-466.79327	1383.57983	-879.20081	-506.03387	1191.40649	-782.47589	-492.28201	1074.56067	-766.59753	-424.37878	980.61761	-756.41449	-301.67914	903.51721	-803.8681	-343.83978	871.22473	-762.80035	-271.87628	829.77332	-768.99323	-419.3717	936.10547	-1136.46838	-425.61548	934.94971	-918.59448	-577.16321	964.39557	-1116.51685	-574.46002	969.41522	-947.66626	-416.51315	629.95642	-1211.43909	-343.1554	486.17609	-1179.32361	-299.77032	236.02467	-1171.38867	-240.69359	72.25617	-1132.69141	-270.61014	48.44501	-1081.74939	-94.62471	85.28918	-1138.30176	-534.78833	607.94928	-884.23627	-565.46832	485.07599	-911.84827	-705.78503	251.35825	-926.51758	-788.77039	86.92622	-980.27765	-838.87079	76.05491	-1022.43933	-648.5047	30.12781	-991.56207	-498.95386	1674.3374	-1034.6731	NaN	NaN	NaN	NaN	NaN	NaN	NaN	NaN	NaN	NaN	NaN	NaN
